<svg xmlns="http://www.w3.org/2000/svg" viewBox="0 0 1200 700" role="img" aria-label="Can Xampa">
  <rect width="1200" height="700" fill="#ffffff"/>
  <g fill="none" stroke="#d8184f" stroke-width="20" stroke-linecap="round" stroke-linejoin="round">
    <path d="M78 278c26-98 131-165 282-165 156 0 286 72 330 177"/>
    <path d="M90 392c62 13 118 14 175 0 31-8 58-26 90-30 36-5 68 12 102 22 66 20 136 16 213-12"/>
    <path d="M84 500c71-30 139-39 210-33 74 7 150 32 224 34 62 1 125-14 180-44"/>
  </g>
  <text x="710" y="300" fill="#d8184f" font-family="Arial, Helvetica, sans-serif" font-size="190" font-weight="900">CAN</text>
  <text x="705" y="500" fill="#d8184f" font-family="Arial, Helvetica, sans-serif" font-size="220" font-weight="900" transform="skewX(-8)">XAMPA</text>
</svg>
