<svg xmlns="http://www.w3.org/2000/svg" xmlns:xlink="http://www.w3.org/1999/xlink" width="500" zoomAndPan="magnify" viewBox="0 0 375 374.999991" height="500" preserveAspectRatio="xMidYMid meet" version="1.0"><defs><g/><clipPath id="7febd9409e"><rect x="0" width="269" y="0" height="64"/></clipPath></defs><rect x="-37.5" width="450" fill="#ffffff" y="-37.499999" height="449.999989" fill-opacity="1"/><rect x="-37.5" width="450" fill="#ffffff" y="-37.499999" height="449.999989" fill-opacity="1"/><g transform="matrix(1, 0, 0, 1, 53, 154)"><g clip-path="url(#7febd9409e)"><g fill="#dc2626" fill-opacity="1"><g transform="translate(0.760772, 49.109098)"><g><path d="M 25.421875 0.59375 C 20.878906 0.59375 16.9375 -0.210938 13.59375 -1.828125 C 10.257812 -3.453125 7.671875 -5.796875 5.828125 -8.859375 C 3.992188 -11.921875 3.078125 -15.601562 3.078125 -19.90625 C 3.078125 -23.0625 3.648438 -25.972656 4.796875 -28.640625 C 5.941406 -31.304688 7.570312 -33.632812 9.6875 -35.625 C 11.800781 -37.625 14.304688 -39.164062 17.203125 -40.25 C 20.109375 -41.34375 23.300781 -41.890625 26.78125 -41.890625 C 28.476562 -41.890625 30.207031 -41.738281 31.96875 -41.4375 C 33.726562 -41.144531 35.335938 -40.78125 36.796875 -40.34375 C 38.253906 -39.914062 39.359375 -39.441406 40.109375 -38.921875 L 40.34375 -31.875 L 39.75 -31.765625 C 38.601562 -34.441406 36.695312 -36.609375 34.03125 -38.265625 C 31.375 -39.929688 28.285156 -40.765625 24.765625 -40.765625 C 21.640625 -40.765625 18.8125 -40.070312 16.28125 -38.6875 C 13.757812 -37.300781 11.757812 -35.242188 10.28125 -32.515625 C 8.800781 -29.796875 8.0625 -26.421875 8.0625 -22.390625 C 8.0625 -19.628906 8.460938 -16.941406 9.265625 -14.328125 C 10.078125 -11.722656 11.289062 -9.382812 12.90625 -7.3125 C 14.53125 -5.238281 16.523438 -3.597656 18.890625 -2.390625 C 21.265625 -1.191406 23.992188 -0.59375 27.078125 -0.59375 C 30.273438 -0.59375 33.066406 -1.421875 35.453125 -3.078125 C 37.847656 -4.734375 39.617188 -7.164062 40.765625 -10.375 L 41.421875 -10.3125 L 40.46875 -2.609375 C 39.082031 -1.859375 37.054688 -1.132812 34.390625 -0.4375 C 31.722656 0.25 28.734375 0.59375 25.421875 0.59375 Z M 25.421875 0.59375 "/></g></g></g><g fill="#dc2626" fill-opacity="1"><g transform="translate(44.655511, 49.109098)"><g><path d="M 1.59375 0 L 1.59375 -0.765625 C 2.507812 -1.046875 3.132812 -1.640625 3.46875 -2.546875 C 3.800781 -3.453125 3.96875 -5.113281 3.96875 -7.53125 L 3.96875 -38.921875 C 3.96875 -40.304688 3.878906 -41.34375 3.703125 -42.03125 C 3.523438 -42.726562 3.265625 -43.234375 2.921875 -43.546875 C 2.585938 -43.859375 2.144531 -44.132812 1.59375 -44.375 L 1.59375 -45.03125 L 8.0625 -47.875 L 8.59375 -47.453125 L 8.59375 -24.59375 C 10.332031 -25.96875 12.285156 -27.21875 14.453125 -28.34375 C 16.628906 -29.476562 18.863281 -30.046875 21.15625 -30.046875 C 24.070312 -30.046875 26.359375 -29.191406 28.015625 -27.484375 C 29.679688 -25.785156 30.515625 -23.203125 30.515625 -19.734375 L 30.515625 -7.53125 C 30.515625 -5.113281 30.679688 -3.453125 31.015625 -2.546875 C 31.347656 -1.640625 31.972656 -1.046875 32.890625 -0.765625 L 32.890625 0 L 23.515625 0 L 23.515625 -0.765625 C 24.429688 -1.046875 25.054688 -1.640625 25.390625 -2.546875 C 25.722656 -3.453125 25.890625 -5.113281 25.890625 -7.53125 L 25.890625 -18.546875 C 25.890625 -21.628906 25.238281 -23.988281 23.9375 -25.625 C 22.632812 -27.257812 20.679688 -28.078125 18.078125 -28.078125 C 16.453125 -28.078125 14.835938 -27.648438 13.234375 -26.796875 C 11.640625 -25.953125 10.09375 -24.898438 8.59375 -23.640625 L 8.59375 -7.53125 C 8.59375 -5.113281 8.757812 -3.453125 9.09375 -2.546875 C 9.425781 -1.640625 10.050781 -1.046875 10.96875 -0.765625 L 10.96875 0 Z M 1.59375 0 "/></g></g></g><g fill="#dc2626" fill-opacity="1"><g transform="translate(78.953831, 49.109098)"><g><path d="M 16.171875 0.59375 C 14.554688 0.59375 12.914062 0.296875 11.25 -0.296875 C 9.59375 -0.890625 8.070312 -1.785156 6.6875 -2.984375 C 5.3125 -4.191406 4.207031 -5.703125 3.375 -7.515625 C 2.550781 -9.335938 2.140625 -11.472656 2.140625 -13.921875 C 2.140625 -17.160156 2.859375 -19.984375 4.296875 -22.390625 C 5.734375 -24.804688 7.632812 -26.6875 10 -28.03125 C 12.375 -29.375 14.945312 -30.046875 17.71875 -30.046875 C 20.207031 -30.046875 22.328125 -29.5625 24.078125 -28.59375 C 25.835938 -27.625 27.203125 -26.347656 28.171875 -24.765625 C 29.140625 -23.179688 29.644531 -21.441406 29.6875 -19.546875 L 6.515625 -19.546875 C 6.398438 -18.679688 6.34375 -17.773438 6.34375 -16.828125 C 6.34375 -14.140625 6.863281 -11.757812 7.90625 -9.6875 C 8.957031 -7.613281 10.441406 -6.003906 12.359375 -4.859375 C 14.273438 -3.710938 16.515625 -3.140625 19.078125 -3.140625 C 21.367188 -3.140625 23.363281 -3.613281 25.0625 -4.5625 C 26.757812 -5.507812 28.28125 -6.753906 29.625 -8.296875 L 30.15625 -7.765625 C 29.164062 -6.378906 27.976562 -5.046875 26.59375 -3.765625 C 25.21875 -2.484375 23.671875 -1.4375 21.953125 -0.625 C 20.234375 0.1875 18.304688 0.59375 16.171875 0.59375 Z M 6.6875 -20.328125 L 24.9375 -20.328125 C 24.738281 -21.671875 24.253906 -23.003906 23.484375 -24.328125 C 22.722656 -25.648438 21.695312 -26.753906 20.40625 -27.640625 C 19.125 -28.523438 17.578125 -28.96875 15.765625 -28.96875 C 13.234375 -29.007812 11.207031 -28.203125 9.6875 -26.546875 C 8.164062 -24.890625 7.164062 -22.816406 6.6875 -20.328125 Z M 6.6875 -20.328125 "/></g></g></g><g fill="#dc2626" fill-opacity="1"><g transform="translate(110.764189, 49.109098)"><g><path d="M 2.3125 0 L 2.3125 -0.765625 C 3.21875 -1.046875 3.835938 -1.640625 4.171875 -2.546875 C 4.515625 -3.453125 4.6875 -5.113281 4.6875 -7.53125 L 4.6875 -28.375 L 1.25 -28.375 L 1.546875 -29.203125 L 4.6875 -29.203125 C 4.800781 -31.421875 5.359375 -33.546875 6.359375 -35.578125 C 7.367188 -37.609375 8.703125 -39.425781 10.359375 -41.03125 C 12.023438 -42.632812 13.929688 -43.898438 16.078125 -44.828125 C 18.234375 -45.753906 20.519531 -46.21875 22.9375 -46.21875 C 25.613281 -46.21875 26.953125 -45.703125 26.953125 -44.671875 C 26.953125 -44.316406 26.796875 -43.875 26.484375 -43.34375 C 26.171875 -42.8125 25.726562 -42.328125 25.15625 -41.890625 C 24.582031 -41.453125 23.878906 -41.234375 23.046875 -41.234375 C 21.703125 -41.234375 20.359375 -41.421875 19.015625 -41.796875 C 17.671875 -42.171875 16.148438 -42.65625 14.453125 -43.25 C 13.785156 -42.894531 13.046875 -42.367188 12.234375 -41.671875 C 11.421875 -40.984375 10.726562 -39.945312 10.15625 -38.5625 C 9.582031 -37.1875 9.296875 -35.253906 9.296875 -32.765625 L 9.296875 -29.203125 L 17.0625 -29.203125 L 16.703125 -28.375 L 9.296875 -28.375 L 9.296875 -7.53125 C 9.296875 -5.113281 9.460938 -3.453125 9.796875 -2.546875 C 10.140625 -1.640625 10.765625 -1.046875 11.671875 -0.765625 L 11.671875 0 Z M 2.3125 0 "/></g></g></g><g fill="#dc2626" fill-opacity="1"><g transform="translate(128.772296, 49.109098)"><g/></g></g><g fill="#dc2626" fill-opacity="1"><g transform="translate(141.212107, 49.109098)"><g><path d="M 24.171875 0.59375 C 21.640625 0.59375 19.128906 0.171875 16.640625 -0.671875 C 14.160156 -1.523438 11.890625 -2.832031 9.828125 -4.59375 C 7.773438 -6.351562 6.132812 -8.570312 4.90625 -11.25 C 3.6875 -13.9375 3.078125 -17.117188 3.078125 -20.796875 C 3.078125 -24.867188 3.960938 -28.492188 5.734375 -31.671875 C 7.515625 -34.847656 9.984375 -37.351562 13.140625 -39.1875 C 16.304688 -41.03125 19.984375 -41.953125 24.171875 -41.953125 C 26.660156 -41.953125 29.148438 -41.515625 31.640625 -40.640625 C 34.128906 -39.773438 36.390625 -38.460938 38.421875 -36.703125 C 40.453125 -34.941406 42.082031 -32.71875 43.3125 -30.03125 C 44.539062 -27.351562 45.15625 -24.195312 45.15625 -20.5625 C 45.15625 -16.882812 44.539062 -13.722656 43.3125 -11.078125 C 42.082031 -8.429688 40.441406 -6.238281 38.390625 -4.5 C 36.335938 -2.757812 34.078125 -1.472656 31.609375 -0.640625 C 29.140625 0.179688 26.660156 0.59375 24.171875 0.59375 Z M 7.828125 -24.234375 C 7.941406 -21.273438 8.484375 -18.398438 9.453125 -15.609375 C 10.421875 -12.828125 11.742188 -10.328125 13.421875 -8.109375 C 15.097656 -5.898438 17.0625 -4.144531 19.3125 -2.84375 C 21.5625 -1.539062 24.007812 -0.890625 26.65625 -0.890625 C 29.820312 -0.890625 32.453125 -1.578125 34.546875 -2.953125 C 36.640625 -4.335938 38.1875 -6.222656 39.1875 -8.609375 C 40.195312 -11.003906 40.644531 -13.6875 40.53125 -16.65625 C 40.40625 -19.726562 39.859375 -22.695312 38.890625 -25.5625 C 37.929688 -28.425781 36.617188 -30.984375 34.953125 -33.234375 C 33.296875 -35.484375 31.34375 -37.269531 29.09375 -38.59375 C 26.84375 -39.925781 24.394531 -40.59375 21.75 -40.59375 C 18.738281 -40.59375 16.175781 -39.898438 14.0625 -38.515625 C 11.957031 -37.128906 10.359375 -35.210938 9.265625 -32.765625 C 8.179688 -30.316406 7.703125 -27.472656 7.828125 -24.234375 Z M 7.828125 -24.234375 "/></g></g></g><g fill="#dc2626" fill-opacity="1"><g transform="translate(189.371926, 49.109098)"><g><path d="M 1.890625 0 L 1.890625 -0.765625 C 2.804688 -1.046875 3.429688 -1.640625 3.765625 -2.546875 C 4.097656 -3.453125 4.265625 -5.113281 4.265625 -7.53125 L 4.265625 -21.15625 C 4.265625 -22.53125 4.1875 -23.5625 4.03125 -24.25 C 3.875 -24.945312 3.613281 -25.453125 3.25 -25.765625 C 2.894531 -26.085938 2.441406 -26.367188 1.890625 -26.609375 L 1.890625 -27.25 L 8.40625 -30.09375 L 8.890625 -29.6875 L 8.890625 -24.59375 C 10.628906 -25.96875 12.582031 -27.21875 14.75 -28.34375 C 16.925781 -29.476562 19.160156 -30.046875 21.453125 -30.046875 C 24.367188 -30.046875 26.65625 -29.191406 28.3125 -27.484375 C 29.976562 -25.785156 30.8125 -23.203125 30.8125 -19.734375 L 30.8125 -7.53125 C 30.8125 -5.113281 30.976562 -3.453125 31.3125 -2.546875 C 31.644531 -1.640625 32.269531 -1.046875 33.1875 -0.765625 L 33.1875 0 L 23.8125 0 L 23.8125 -0.765625 C 24.726562 -1.046875 25.351562 -1.640625 25.6875 -2.546875 C 26.019531 -3.453125 26.1875 -5.113281 26.1875 -7.53125 L 26.1875 -18.546875 C 26.1875 -21.628906 25.535156 -23.988281 24.234375 -25.625 C 22.929688 -27.257812 20.976562 -28.078125 18.375 -28.078125 C 16.75 -28.078125 15.132812 -27.648438 13.53125 -26.796875 C 11.9375 -25.953125 10.390625 -24.898438 8.890625 -23.640625 L 8.890625 -7.53125 C 8.890625 -5.113281 9.066406 -3.453125 9.421875 -2.546875 C 9.773438 -1.640625 10.382812 -1.046875 11.25 -0.765625 L 11.25 0 Z M 1.890625 0 "/></g></g></g><g fill="#dc2626" fill-opacity="1"><g transform="translate(223.966439, 49.109098)"><g><path d="M 16.171875 0.59375 C 14.554688 0.59375 12.914062 0.296875 11.25 -0.296875 C 9.59375 -0.890625 8.070312 -1.785156 6.6875 -2.984375 C 5.3125 -4.191406 4.207031 -5.703125 3.375 -7.515625 C 2.550781 -9.335938 2.140625 -11.472656 2.140625 -13.921875 C 2.140625 -17.160156 2.859375 -19.984375 4.296875 -22.390625 C 5.734375 -24.804688 7.632812 -26.6875 10 -28.03125 C 12.375 -29.375 14.945312 -30.046875 17.71875 -30.046875 C 20.207031 -30.046875 22.328125 -29.5625 24.078125 -28.59375 C 25.835938 -27.625 27.203125 -26.347656 28.171875 -24.765625 C 29.140625 -23.179688 29.644531 -21.441406 29.6875 -19.546875 L 6.515625 -19.546875 C 6.398438 -18.679688 6.34375 -17.773438 6.34375 -16.828125 C 6.34375 -14.140625 6.863281 -11.757812 7.90625 -9.6875 C 8.957031 -7.613281 10.441406 -6.003906 12.359375 -4.859375 C 14.273438 -3.710938 16.515625 -3.140625 19.078125 -3.140625 C 21.367188 -3.140625 23.363281 -3.613281 25.0625 -4.5625 C 26.757812 -5.507812 28.28125 -6.753906 29.625 -8.296875 L 30.15625 -7.765625 C 29.164062 -6.378906 27.976562 -5.046875 26.59375 -3.765625 C 25.21875 -2.484375 23.671875 -1.4375 21.953125 -0.625 C 20.234375 0.1875 18.304688 0.59375 16.171875 0.59375 Z M 6.6875 -20.328125 L 24.9375 -20.328125 C 24.738281 -21.671875 24.253906 -23.003906 23.484375 -24.328125 C 22.722656 -25.648438 21.695312 -26.753906 20.40625 -27.640625 C 19.125 -28.523438 17.578125 -28.96875 15.765625 -28.96875 C 13.234375 -29.007812 11.207031 -28.203125 9.6875 -26.546875 C 8.164062 -24.890625 7.164062 -22.816406 6.6875 -20.328125 Z M 6.6875 -20.328125 "/></g></g></g><g fill="#dc2626" fill-opacity="1"><g transform="translate(255.786337, 49.109098)"><g/></g></g></g></g></svg>