<svg xmlns="http://www.w3.org/2000/svg" viewBox="52 156 272 52" width="272" height="52" preserveAspectRatio="xMidYMid meet"><defs><g/></defs><g fill="#dc2626" fill-opacity="1"><g transform="translate(74.507812, 200.249987)"><g><path d="M 20.765625 0.484375 C 17.046875 0.484375 13.820312 -0.175781 11.09375 -1.5 C 8.375 -2.820312 6.265625 -4.734375 4.765625 -7.234375 C 3.265625 -9.734375 2.515625 -12.742188 2.515625 -16.265625 C 2.515625 -18.835938 2.984375 -21.210938 3.921875 -23.390625 C 4.859375 -25.566406 6.1875 -27.46875 7.90625 -29.09375 C 9.632812 -30.726562 11.679688 -31.988281 14.046875 -32.875 C 16.421875 -33.769531 19.03125 -34.21875 21.875 -34.21875 C 23.257812 -34.21875 24.671875 -34.09375 26.109375 -33.84375 C 27.546875 -33.601562 28.859375 -33.304688 30.046875 -32.953125 C 31.242188 -32.597656 32.148438 -32.210938 32.765625 -31.796875 L 32.953125 -26.03125 L 32.46875 -25.9375 C 31.53125 -28.132812 29.972656 -29.910156 27.796875 -31.265625 C 25.617188 -32.617188 23.097656 -33.296875 20.234375 -33.296875 C 17.679688 -33.296875 15.367188 -32.726562 13.296875 -31.59375 C 11.234375 -30.46875 9.597656 -28.789062 8.390625 -26.5625 C 7.179688 -24.34375 6.578125 -21.585938 6.578125 -18.296875 C 6.578125 -16.035156 6.90625 -13.835938 7.5625 -11.703125 C 8.226562 -9.578125 9.222656 -7.664062 10.546875 -5.96875 C 11.867188 -4.28125 13.5 -2.941406 15.4375 -1.953125 C 17.375 -0.972656 19.597656 -0.484375 22.109375 -0.484375 C 24.722656 -0.484375 27.003906 -1.160156 28.953125 -2.515625 C 30.910156 -3.867188 32.359375 -5.851562 33.296875 -8.46875 L 33.828125 -8.421875 L 33.046875 -2.125 C 31.921875 -1.507812 30.269531 -0.921875 28.09375 -0.359375 C 25.914062 0.203125 23.472656 0.484375 20.765625 0.484375 Z M 20.765625 0.484375 "/></g></g></g><g fill="#dc2626" fill-opacity="1"><g transform="translate(110.362344, 200.249987)"><g><path d="M 1.3125 0 L 1.3125 -0.625 C 2.050781 -0.851562 2.554688 -1.335938 2.828125 -2.078125 C 3.097656 -2.816406 3.234375 -4.171875 3.234375 -6.140625 L 3.234375 -31.796875 C 3.234375 -32.921875 3.160156 -33.765625 3.015625 -34.328125 C 2.878906 -34.898438 2.671875 -35.3125 2.390625 -35.5625 C 2.117188 -35.820312 1.757812 -36.050781 1.3125 -36.25 L 1.3125 -36.78125 L 6.578125 -39.09375 L 7.015625 -38.765625 L 7.015625 -20.078125 C 8.429688 -21.210938 10.023438 -22.238281 11.796875 -23.15625 C 13.578125 -24.070312 15.40625 -24.53125 17.28125 -24.53125 C 19.664062 -24.53125 21.535156 -23.835938 22.890625 -22.453125 C 24.242188 -21.066406 24.921875 -18.953125 24.921875 -16.109375 L 24.921875 -6.140625 C 24.921875 -4.171875 25.054688 -2.816406 25.328125 -2.078125 C 25.609375 -1.335938 26.117188 -0.851562 26.859375 -0.625 L 26.859375 0 L 19.21875 0 L 19.21875 -0.625 C 19.957031 -0.851562 20.460938 -1.335938 20.734375 -2.078125 C 21.003906 -2.816406 21.140625 -4.171875 21.140625 -6.140625 L 21.140625 -15.140625 C 21.140625 -17.660156 20.609375 -19.585938 19.546875 -20.921875 C 18.484375 -22.265625 16.890625 -22.9375 14.765625 -22.9375 C 13.441406 -22.9375 12.125 -22.585938 10.8125 -21.890625 C 9.507812 -21.203125 8.242188 -20.34375 7.015625 -19.3125 L 7.015625 -6.140625 C 7.015625 -4.171875 7.148438 -2.816406 7.421875 -2.078125 C 7.703125 -1.335938 8.210938 -0.851562 8.953125 -0.625 L 8.953125 0 Z M 1.3125 0 "/></g></g></g><g fill="#dc2626" fill-opacity="1"><g transform="translate(138.378235, 200.249987)"><g><path d="M 13.203125 0.484375 C 11.890625 0.484375 10.550781 0.242188 9.1875 -0.234375 C 7.832031 -0.722656 6.59375 -1.457031 5.46875 -2.4375 C 4.34375 -3.425781 3.4375 -4.660156 2.75 -6.140625 C 2.070312 -7.628906 1.734375 -9.375 1.734375 -11.375 C 1.734375 -14.019531 2.320312 -16.328125 3.5 -18.296875 C 4.6875 -20.265625 6.242188 -21.796875 8.171875 -22.890625 C 10.109375 -23.984375 12.207031 -24.53125 14.46875 -24.53125 C 16.5 -24.53125 18.234375 -24.132812 19.671875 -23.34375 C 21.109375 -22.550781 22.222656 -21.507812 23.015625 -20.21875 C 23.804688 -18.9375 24.21875 -17.519531 24.25 -15.96875 L 5.328125 -15.96875 C 5.222656 -15.257812 5.171875 -14.519531 5.171875 -13.75 C 5.171875 -11.550781 5.597656 -9.601562 6.453125 -7.90625 C 7.316406 -6.21875 8.53125 -4.90625 10.09375 -3.96875 C 11.65625 -3.03125 13.484375 -2.5625 15.578125 -2.5625 C 17.453125 -2.5625 19.082031 -2.945312 20.46875 -3.71875 C 21.851562 -4.5 23.097656 -5.519531 24.203125 -6.78125 L 24.625 -6.34375 C 23.820312 -5.207031 22.851562 -4.113281 21.71875 -3.0625 C 20.59375 -2.019531 19.328125 -1.164062 17.921875 -0.5 C 16.523438 0.15625 14.953125 0.484375 13.203125 0.484375 Z M 5.46875 -16.59375 L 20.375 -16.59375 C 20.207031 -17.695312 19.8125 -18.785156 19.1875 -19.859375 C 18.5625 -20.941406 17.722656 -21.84375 16.671875 -22.5625 C 15.617188 -23.289062 14.351562 -23.65625 12.875 -23.65625 C 10.8125 -23.695312 9.15625 -23.035156 7.90625 -21.671875 C 6.664062 -20.316406 5.851562 -18.625 5.46875 -16.59375 Z M 5.46875 -16.59375 "/></g></g></g><g fill="#dc2626" fill-opacity="1"><g transform="translate(164.361883, 200.249987)"><g><path d="M 1.890625 0 L 1.890625 -0.625 C 2.628906 -0.851562 3.132812 -1.335938 3.40625 -2.078125 C 3.6875 -2.816406 3.828125 -4.171875 3.828125 -6.140625 L 3.828125 -23.171875 L 1.015625 -23.171875 L 1.265625 -23.859375 L 3.828125 -23.859375 C 3.921875 -25.660156 4.378906 -27.390625 5.203125 -29.046875 C 6.023438 -30.710938 7.113281 -32.195312 8.46875 -33.5 C 9.820312 -34.8125 11.378906 -35.847656 13.140625 -36.609375 C 14.898438 -37.367188 16.765625 -37.75 18.734375 -37.75 C 20.921875 -37.75 22.015625 -37.328125 22.015625 -36.484375 C 22.015625 -36.191406 21.882812 -35.828125 21.625 -35.390625 C 21.375 -34.960938 21.015625 -34.570312 20.546875 -34.21875 C 20.078125 -33.863281 19.503906 -33.6875 18.828125 -33.6875 C 17.722656 -33.6875 16.625 -33.835938 15.53125 -34.140625 C 14.4375 -34.441406 13.195312 -34.835938 11.8125 -35.328125 C 11.257812 -35.035156 10.648438 -34.609375 9.984375 -34.046875 C 9.328125 -33.484375 8.765625 -32.632812 8.296875 -31.5 C 7.828125 -30.375 7.59375 -28.796875 7.59375 -26.765625 L 7.59375 -23.859375 L 13.9375 -23.859375 L 13.640625 -23.171875 L 7.59375 -23.171875 L 7.59375 -6.140625 C 7.59375 -4.171875 7.726562 -2.816406 8 -2.078125 C 8.28125 -1.335938 8.789062 -0.851562 9.53125 -0.625 L 9.53125 0 Z M 1.890625 0 "/></g></g></g><g fill="#dc2626" fill-opacity="1"><g transform="translate(196.732582, 200.249987)"><g><path d="M 19.75 0.484375 C 17.675781 0.484375 15.625 0.140625 13.59375 -0.546875 C 11.5625 -1.242188 9.707031 -2.3125 8.03125 -3.75 C 6.351562 -5.1875 5.015625 -7 4.015625 -9.1875 C 3.015625 -11.382812 2.515625 -13.984375 2.515625 -16.984375 C 2.515625 -20.304688 3.238281 -23.265625 4.6875 -25.859375 C 6.144531 -28.460938 8.160156 -30.515625 10.734375 -32.015625 C 13.316406 -33.515625 16.320312 -34.265625 19.75 -34.265625 C 21.78125 -34.265625 23.8125 -33.90625 25.84375 -33.1875 C 27.875 -32.476562 29.71875 -31.40625 31.375 -29.96875 C 33.039062 -28.539062 34.375 -26.726562 35.375 -24.53125 C 36.375 -22.34375 36.875 -19.765625 36.875 -16.796875 C 36.875 -13.796875 36.375 -11.210938 35.375 -9.046875 C 34.375 -6.890625 33.035156 -5.097656 31.359375 -3.671875 C 29.679688 -2.253906 27.832031 -1.207031 25.8125 -0.53125 C 23.800781 0.144531 21.78125 0.484375 19.75 0.484375 Z M 6.390625 -19.796875 C 6.484375 -17.367188 6.925781 -15.019531 7.71875 -12.75 C 8.507812 -10.476562 9.585938 -8.4375 10.953125 -6.625 C 12.328125 -4.820312 13.929688 -3.382812 15.765625 -2.3125 C 17.609375 -1.25 19.613281 -0.71875 21.78125 -0.71875 C 24.351562 -0.71875 26.492188 -1.28125 28.203125 -2.40625 C 29.921875 -3.539062 31.191406 -5.082031 32.015625 -7.03125 C 32.835938 -8.988281 33.195312 -11.175781 33.09375 -13.59375 C 33 -16.113281 32.554688 -18.539062 31.765625 -20.875 C 30.972656 -23.21875 29.898438 -25.304688 28.546875 -27.140625 C 27.191406 -28.984375 25.59375 -30.441406 23.75 -31.515625 C 21.914062 -32.597656 19.921875 -33.140625 17.765625 -33.140625 C 15.304688 -33.140625 13.210938 -32.578125 11.484375 -31.453125 C 9.765625 -30.328125 8.460938 -28.765625 7.578125 -26.765625 C 6.691406 -24.765625 6.296875 -22.441406 6.390625 -19.796875 Z M 6.390625 -19.796875 "/></g></g></g><g fill="#dc2626" fill-opacity="1"><g transform="translate(236.070958, 200.249987)"><g><path d="M 1.546875 0 L 1.546875 -0.625 C 2.285156 -0.851562 2.789062 -1.335938 3.0625 -2.078125 C 3.34375 -2.816406 3.484375 -4.171875 3.484375 -6.140625 L 3.484375 -17.28125 C 3.484375 -18.40625 3.414062 -19.25 3.28125 -19.8125 C 3.15625 -20.375 2.945312 -20.785156 2.65625 -21.046875 C 2.363281 -21.304688 1.992188 -21.535156 1.546875 -21.734375 L 1.546875 -22.265625 L 6.875 -24.578125 L 7.265625 -24.25 L 7.265625 -20.078125 C 8.679688 -21.210938 10.273438 -22.238281 12.046875 -23.15625 C 13.816406 -24.070312 15.640625 -24.53125 17.515625 -24.53125 C 19.898438 -24.53125 21.769531 -23.835938 23.125 -22.453125 C 24.476562 -21.066406 25.15625 -18.953125 25.15625 -16.109375 L 25.15625 -6.140625 C 25.15625 -4.171875 25.289062 -2.816406 25.5625 -2.078125 C 25.84375 -1.335938 26.351562 -0.851562 27.09375 -0.625 L 27.09375 0 L 19.453125 0 L 19.453125 -0.625 C 20.191406 -0.851562 20.695312 -1.335938 20.96875 -2.078125 C 21.25 -2.816406 21.390625 -4.171875 21.390625 -6.140625 L 21.390625 -15.140625 C 21.390625 -17.660156 20.851562 -19.585938 19.78125 -20.921875 C 18.71875 -22.265625 17.125 -22.9375 15 -22.9375 C 13.675781 -22.9375 12.359375 -22.585938 11.046875 -21.890625 C 9.742188 -21.203125 8.484375 -20.34375 7.265625 -19.3125 L 7.265625 -6.140625 C 7.265625 -4.171875 7.40625 -2.816406 7.6875 -2.078125 C 7.976562 -1.335938 8.476562 -0.851562 9.1875 -0.625 L 9.1875 0 Z M 1.546875 0 "/></g></g></g><g fill="#dc2626" fill-opacity="1"><g transform="translate(264.328788, 200.249987)"><g><path d="M 13.203125 0.484375 C 11.890625 0.484375 10.550781 0.242188 9.1875 -0.234375 C 7.832031 -0.722656 6.59375 -1.457031 5.46875 -2.4375 C 4.34375 -3.425781 3.4375 -4.660156 2.75 -6.140625 C 2.070312 -7.628906 1.734375 -9.375 1.734375 -11.375 C 1.734375 -14.019531 2.320312 -16.328125 3.5 -18.296875 C 4.6875 -20.265625 6.242188 -21.796875 8.171875 -22.890625 C 10.109375 -23.984375 12.207031 -24.53125 14.46875 -24.53125 C 16.5 -24.53125 18.234375 -24.132812 19.671875 -23.34375 C 21.109375 -22.550781 22.222656 -21.507812 23.015625 -20.21875 C 23.804688 -18.9375 24.21875 -17.519531 24.25 -15.96875 L 5.328125 -15.96875 C 5.222656 -15.257812 5.171875 -14.519531 5.171875 -13.75 C 5.171875 -11.550781 5.597656 -9.601562 6.453125 -7.90625 C 7.316406 -6.21875 8.53125 -4.90625 10.09375 -3.96875 C 11.65625 -3.03125 13.484375 -2.5625 15.578125 -2.5625 C 17.453125 -2.5625 19.082031 -2.945312 20.46875 -3.71875 C 21.851562 -4.5 23.097656 -5.519531 24.203125 -6.78125 L 24.625 -6.34375 C 23.820312 -5.207031 22.851562 -4.113281 21.71875 -3.0625 C 20.59375 -2.019531 19.328125 -1.164062 17.921875 -0.5 C 16.523438 0.15625 14.953125 0.484375 13.203125 0.484375 Z M 5.46875 -16.59375 L 20.375 -16.59375 C 20.207031 -17.695312 19.8125 -18.785156 19.1875 -19.859375 C 18.5625 -20.941406 17.722656 -21.84375 16.671875 -22.5625 C 15.617188 -23.289062 14.351562 -23.65625 12.875 -23.65625 C 10.8125 -23.695312 9.15625 -23.035156 7.90625 -21.671875 C 6.664062 -20.316406 5.851562 -18.625 5.46875 -16.59375 Z M 5.46875 -16.59375 "/></g></g></g><g fill="#dc2626" fill-opacity="1"><g transform="translate(290.320298, 200.249987)"><g/></g></g></svg>